<svg width="38" height="38" viewBox="0 0 38 38" fill="none" xmlns="http://www.w3.org/2000/svg">
<path d="M33.5283 25.8198C32.1462 25.8198 31.5336 25.2858 30.6698 24.532C29.7118 23.7153 28.5182 22.6787 26.2723 22.6787C24.0107 22.6787 22.8327 23.7153 21.8747 24.532C21.0109 25.2858 20.3827 25.8198 19.0006 25.8198C17.6342 25.8198 17.0059 25.2858 16.1421 24.532C15.1841 23.7153 13.9905 22.6787 11.7446 22.6787C9.48295 22.6787 8.28933 23.7153 7.33128 24.532C6.46747 25.2858 5.85494 25.8198 4.47284 25.8198C3.82891 25.8198 3.29492 26.3538 3.29492 26.9978C3.29492 27.6574 3.82891 28.1757 4.47284 28.1757C6.73446 28.1757 7.91236 27.1548 8.8704 26.3224C9.73421 25.5685 10.3625 25.0346 11.7446 25.0346C13.1267 25.0346 13.7392 25.5685 14.603 26.3224C15.561 27.1548 16.7547 28.1757 19.0006 28.1757C21.2622 28.1757 22.4558 27.1548 23.4138 26.3224C24.2776 25.5685 24.8902 25.0346 26.2723 25.0346C27.6387 25.0346 28.2669 25.5685 29.1307 26.3224C30.0888 27.1548 31.2824 28.1757 33.5283 28.1757C34.1722 28.1757 34.7062 27.6574 34.7062 26.9978C34.7062 26.3538 34.1722 25.8198 33.5283 25.8198Z" fill="#141416"/>
<path d="M33.5283 19.353C32.1462 19.353 31.5336 18.8033 30.6698 18.0652C29.7118 17.2328 28.5182 16.2119 26.2723 16.2119C24.0107 16.2119 22.8327 17.2328 21.8747 18.0652C21.0109 18.8033 20.3827 19.353 19.0006 19.353C17.6342 19.353 17.0059 18.8033 16.1421 18.0652C15.1841 17.2328 13.9905 16.2119 11.7446 16.2119C9.48295 16.2119 8.28933 17.2328 7.33128 18.0652C6.46747 18.8033 5.85494 19.353 4.47284 19.353C3.82891 19.353 3.29492 19.8713 3.29492 20.531C3.29492 21.1749 3.82891 21.7089 4.47284 21.7089C6.73446 21.7089 7.91236 20.6723 8.8704 19.8399C9.73421 19.1018 10.3625 18.5678 11.7446 18.5678C13.1267 18.5678 13.7392 19.1018 14.603 19.8399C15.561 20.6723 16.7547 21.7089 19.0006 21.7089C21.2622 21.7089 22.4558 20.6723 23.4138 19.8399C24.2776 19.1018 24.8902 18.5678 26.2723 18.5678C27.6387 18.5678 28.2669 19.1018 29.1307 19.8399C30.0888 20.6723 31.2824 21.7089 33.5283 21.7089C34.1722 21.7089 34.7062 21.1749 34.7062 20.531C34.7062 19.8713 34.1722 19.353 33.5283 19.353Z" fill="#141416"/>
<path d="M4.47284 15.2694C6.73446 15.2694 7.91236 14.2329 8.8704 13.4162C9.73421 12.6623 10.3625 12.1283 11.7446 12.1283C13.1267 12.1283 13.7392 12.6623 14.603 13.4162C15.561 14.2329 16.7547 15.2694 19.0006 15.2694C21.2622 15.2694 22.4558 14.2329 23.4138 13.4162C24.2776 12.6623 24.8902 12.1283 26.2723 12.1283C27.6387 12.1283 28.2669 12.6623 29.1307 13.4162C30.0888 14.2329 31.2824 15.2694 33.5283 15.2694C34.1722 15.2694 34.7062 14.7354 34.7062 14.0915C34.7062 13.4319 34.1722 12.9136 33.5283 12.9136C32.1462 12.9136 31.5336 12.3796 30.6698 11.6257C29.7118 10.7933 28.5182 9.77246 26.2723 9.77246C24.0107 9.77246 22.8327 10.7933 21.8747 11.6257C21.0109 12.3796 20.3827 12.9136 19.0006 12.9136C17.6342 12.9136 17.0059 12.3796 16.1421 11.6257C15.1841 10.7933 13.9905 9.77246 11.7446 9.77246C9.48295 9.77246 8.28933 10.7933 7.33128 11.6257C6.46747 12.3796 5.85494 12.9136 4.47284 12.9136C3.82891 12.9136 3.29492 13.4319 3.29492 14.0915C3.29492 14.7354 3.82891 15.2694 4.47284 15.2694Z" fill="#141416"/>
</svg>
